<svg xmlns="http://www.w3.org/2000/svg" width="256" height="256" viewBox="0 0 32 32">
  <path fill="#25D366" d="M16 .5C7.44.5.5 7.44.5 16c0 2.79.73 5.5 2.12 7.88L.5 31.5l7.77-2.06A15.38 15.38 0 0 0 16 31.5C24.56 31.5 31.5 24.56 31.5 16S24.56.5 16 .5z"></path>
  <path fill="#fff" d="M24.41 20.26c-.38-.19-2.21-1.09-2.55-1.21c-.34-.13-.59-.19-.84.19c-.25.38-.96 1.21-1.18 1.46c-.21.25-.43.28-.8.09c-.38-.19-1.6-.59-3.05-1.88c-1.13-1.01-1.88-2.25-2.1-2.63c-.21-.38-.02-.58.17-.77c.18-.18.38-.43.57-.65c.19-.21.25-.38.38-.63c.13-.25.06-.47 0-.65c-.06-.19-.84-2.02-1.15-2.77c-.3-.72-.61-.62-.84-.63c-.22-.01-.47-.01-.72-.01c-.25 0-.65.09-.99.47c-.34.38-1.3 1.27-1.3 3.1c0 1.83 1.33 3.59 1.52 3.83c.19.25 2.62 4 6.34 5.62c3.72 1.63 3.72 1.09 4.39 1.02c.67-.06 2.21-.9 2.52-1.77c.31-.87.31-1.62.22-1.77c-.09-.15-.34-.25-.72-.43z"></path>
</svg>
